<?xml version="1.0" encoding="UTF-8"?>
<svg version="1.1" xmlns="http://www.w3.org/2000/svg" width="1042" height="346">
<path d="M0 0 C343.86 0 687.72 0 1042 0 C1042 114.18 1042 228.36 1042 346 C698.14 346 354.28 346 0 346 C0 231.82 0 117.64 0 0 Z " fill="#1B191A" transform="translate(0,0)"/>
<path d="M0 0 C8.8591622 4.51011894 16.01717313 10.71187551 19.77734375 20.13671875 C22.09924862 29.32816464 21.10834612 38.5343153 16.4375 46.75 C11.69384408 54.67757714 5.29438439 59.54551843 -3.54296875 62.38671875 C-13.25490655 64.13374044 -21.43924725 62.48421565 -29.78515625 57.39453125 C-36.67493124 52.59100588 -41.82473663 46.12285989 -43.5625 37.75 C-44.87301416 26.26989596 -43.00516571 17.75315028 -35.88671875 8.59375 C-27.00023558 -1.04859496 -12.42303374 -4.44715605 0 0 Z " fill="#FA90CF" transform="translate(284.5625,144.25)"/>
<path d="M0 0 C8.76879969 4.14559811 12.1052124 16.61111193 15.85546875 24.84765625 C16.35755859 25.93498047 16.85964844 27.02230469 17.37695312 28.14257812 C18.08754883 29.6962207 18.08754883 29.6962207 18.8125 31.28125 C19.24151611 32.2189624 19.67053223 33.1566748 20.11254883 34.12280273 C21.04296875 36.41015625 21.04296875 36.41015625 21.04296875 38.41015625 C24.25337306 37.71151889 24.25337306 37.71151889 25.51342773 34.8215332 C26.01688721 33.69191162 26.52034668 32.56229004 27.0390625 31.3984375 C27.31387955 30.79259323 27.58869659 30.18674896 27.87184143 29.56254578 C28.75138239 27.6202385 29.61676913 25.67205347 30.48046875 23.72265625 C31.34232944 21.79198204 32.20727893 19.86284659 33.0783844 17.93632507 C33.873449 16.17586533 34.65855517 14.41091815 35.44311523 12.64575195 C38.05242743 7.36859423 40.79833767 2.31144153 46.04296875 -0.58984375 C51.42504908 -1.48268498 56.37734138 -1.53224557 61.04296875 1.53515625 C64.19635997 3.94750053 65.5784581 6.74575087 67.04296875 10.41015625 C67.44741781 14.03684625 67.3925445 17.63207412 67.3359375 21.27734375 C67.33169266 22.31206818 67.32744781 23.3467926 67.32307434 24.41287231 C67.30633871 27.70390306 67.26869524 30.99431191 67.23046875 34.28515625 C67.21541533 36.52212655 67.20172808 38.75910648 67.18945312 40.99609375 C67.15645181 46.46768598 67.10470416 51.93881582 67.04296875 57.41015625 C62.09296875 57.41015625 57.14296875 57.41015625 52.04296875 57.41015625 C52.04296875 44.21015625 52.04296875 31.01015625 52.04296875 17.41015625 C49.23586795 20.21725705 48.01619988 22.11152053 46.30078125 25.6015625 C45.79160156 26.62958984 45.28242187 27.65761719 44.7578125 28.71679688 C44.23316406 29.79123047 43.70851563 30.86566406 43.16796875 31.97265625 C42.65105469 33.02001953 42.13414062 34.06738281 41.6015625 35.14648438 C39.60041252 39.20171147 37.60309144 43.25866435 35.625 47.32519531 C35.18800781 48.21561523 34.75101563 49.10603516 34.30078125 50.0234375 C33.91809082 50.80887939 33.53540039 51.59432129 33.14111328 52.40356445 C31.50759597 55.38841968 30.096583 56.88334912 27.04296875 58.41015625 C22.59539947 59.17306047 19.38679551 59.3343707 15.58398438 56.71899414 C12.85528156 54.23961842 11.65132547 52.26193209 10.10546875 48.9375 C9.60273437 47.87208984 9.1 46.80667969 8.58203125 45.70898438 C8.07414063 44.59974609 7.56625 43.49050781 7.04296875 42.34765625 C6.53507813 41.26548828 6.0271875 40.18332031 5.50390625 39.06835938 C3.50417625 34.79457745 1.51921399 30.52122697 -0.33984375 26.18408203 C-0.77039063 25.18747559 -1.2009375 24.19086914 -1.64453125 23.1640625 C-2.01964844 22.27146729 -2.39476562 21.37887207 -2.78125 20.45922852 C-3.84580443 18.07753384 -3.84580443 18.07753384 -6.95703125 17.41015625 C-6.95703125 30.61015625 -6.95703125 43.81015625 -6.95703125 57.41015625 C-11.57703125 57.41015625 -16.19703125 57.41015625 -20.95703125 57.41015625 C-21.0560667 50.68412552 -21.12857999 43.95852125 -21.17675781 37.23193359 C-21.19684642 34.94474899 -21.22412253 32.65761557 -21.25878906 30.37060547 C-21.30742683 27.07897291 -21.33002804 23.78802068 -21.34765625 20.49609375 C-21.36830139 19.47712006 -21.38894653 18.45814636 -21.41021729 17.40829468 C-21.41211021 11.39010924 -20.95903726 7.9946866 -16.95703125 3.41015625 C-11.74072731 -1.19960072 -6.57493774 -1.98166786 0 0 Z " fill="#FBFBFB" transform="translate(765.95703125,108.58984375)"/>
<path d="M0 0 C0.9350235 -0.0127597 1.870047 -0.02551941 2.83340454 -0.03866577 C3.84792694 -0.04089142 4.86244934 -0.04311707 5.90771484 -0.04541016 C6.95132172 -0.05206696 7.99492859 -0.05872375 9.07015991 -0.06558228 C11.28438553 -0.07572497 13.49864181 -0.0803988 15.71289062 -0.08007812 C19.08434393 -0.08442839 22.4544641 -0.12066828 25.82568359 -0.15869141 C27.97802288 -0.16456396 30.13036837 -0.16853041 32.28271484 -0.17041016 C33.28509186 -0.18478119 34.28746887 -0.19915222 35.32022095 -0.21395874 C42.20731747 -0.1695343 47.91961608 0.88792045 53.05117798 5.77334595 C56.12092757 9.28734334 57.39246717 11.94982384 57.74365234 16.60302734 C57.47264217 20.60042741 56.35618743 22.79827406 54.49365234 26.29052734 C54.10110918 30.17294671 54.10110918 30.17294671 55.98193359 32.33349609 C58.33980347 36.94566018 57.8082928 41.50762904 57.68115234 46.60302734 C57.66084961 48.14313477 57.66084961 48.14313477 57.64013672 49.71435547 C57.60489555 52.23997224 57.55109182 54.76531791 57.49365234 57.29052734 C52.21365234 57.29052734 46.93365234 57.29052734 41.49365234 57.29052734 C41.43306641 56.00275391 41.37248047 54.71498047 41.31005859 53.38818359 C41.22566988 51.70978576 41.14102105 50.03140098 41.05615234 48.35302734 C41.01683594 47.50289062 40.97751953 46.65275391 40.93701172 45.77685547 C40.89511719 44.96796875 40.85322266 44.15908203 40.81005859 43.32568359 C40.75507202 42.20238647 40.75507202 42.20238647 40.69897461 41.05639648 C40.67594172 39.26591408 40.67594172 39.26591408 39.49365234 38.29052734 C37.2767724 38.13178779 35.05509936 38.03918897 32.83349609 37.97412109 C32.16902969 37.95334 31.50456329 37.9325589 30.81996155 37.91114807 C28.69046691 37.84559076 26.56084566 37.78673949 24.43115234 37.72802734 C22.99038387 37.68484795 21.54962835 37.64123386 20.10888672 37.59716797 C16.57060331 37.48908208 13.03222837 37.39005641 9.49365234 37.29052734 C9.49365234 43.89052734 9.49365234 50.49052734 9.49365234 57.29052734 C4.21365234 57.29052734 -1.06634766 57.29052734 -6.50634766 57.29052734 C-6.55566677 49.49431286 -6.59202876 41.69818853 -6.61621094 33.90185547 C-6.62628855 31.24786803 -6.63995079 28.59389175 -6.65722656 25.93994141 C-6.68139757 22.13229627 -6.692813 18.32479751 -6.70166016 14.51708984 C-6.71198273 13.32435455 -6.7223053 12.13161926 -6.73294067 10.90274048 C-6.73309174 9.80175018 -6.7332428 8.70075989 -6.73339844 7.56640625 C-6.74006027 6.10746445 -6.74006027 6.10746445 -6.74685669 4.61904907 C-6.28692553 0.16616149 -3.89108288 0.03599376 0 0 Z " fill="#FAFAFA" transform="translate(533.50634765625,108.70947265625)"/>
<path d="M0 0 C1.12085999 0.00022659 2.24171997 0.00045319 3.39654541 0.00068665 C4.60083191 0.0161705 5.80511841 0.03165436 7.04589844 0.04760742 C8.28321716 0.05185226 9.52053589 0.05609711 10.79534912 0.06047058 C14.07689884 0.07441363 17.358004 0.10134532 20.6394043 0.13458252 C23.99100651 0.16533023 27.34262783 0.17873014 30.69433594 0.1940918 C37.26482221 0.22717621 43.83501146 0.27738772 50.40527344 0.34057617 C50.43212439 2.81981418 50.45203891 5.29876457 50.46777344 7.77807617 C50.47615234 8.48512695 50.48453125 9.19217773 50.49316406 9.9206543 C50.50180931 11.72751177 50.45747355 13.5344522 50.40527344 15.34057617 C49.40527344 16.34057617 49.40527344 16.34057617 47.61460876 16.46083069 C46.8351741 16.45861008 46.05573944 16.45638947 45.25268555 16.45410156 C44.37184799 16.45402603 43.49101044 16.4539505 42.58348083 16.45387268 C41.62619583 16.4487114 40.66891083 16.44355011 39.68261719 16.43823242 C38.70740616 16.43681747 37.73219513 16.43540253 36.72743225 16.4339447 C33.59918201 16.4283275 30.4710022 16.4157721 27.34277344 16.40307617 C25.22754009 16.39806339 23.11230563 16.3935001 20.99707031 16.3894043 C15.79978048 16.37835249 10.60253199 16.36159763 5.40527344 16.34057617 C5.40527344 18.65057617 5.40527344 20.96057617 5.40527344 23.34057617 C19.92527344 23.34057617 34.44527344 23.34057617 49.40527344 23.34057617 C49.40527344 26.97057617 49.40527344 30.60057617 49.40527344 34.34057617 C34.88527344 34.34057617 20.36527344 34.34057617 5.40527344 34.34057617 C5.40527344 37.31057617 5.40527344 40.28057617 5.40527344 43.34057617 C19.92527344 43.34057617 34.44527344 43.34057617 49.40527344 43.34057617 C49.40527344 47.96057617 49.40527344 52.58057617 49.40527344 57.34057617 C42.15561775 57.40834295 34.90613503 57.46338669 27.65622997 57.49601269 C24.28982466 57.51167128 20.92364721 57.53291238 17.55737305 57.56689453 C13.68760095 57.60319366 9.81815318 57.62028367 5.94824219 57.63354492 C4.13407051 57.65677071 4.13407051 57.65677071 2.2832489 57.6804657 C1.16231339 57.68069229 0.04137787 57.68091888 -1.11352539 57.68115234 C-2.10169754 57.68781418 -3.08986969 57.69447601 -4.10798645 57.70133972 C-6.59472656 57.34057617 -6.59472656 57.34057617 -8.41204834 56.13020325 C-9.97716008 53.7618783 -9.98159453 52.19765724 -9.9987793 49.3659668 C-10.01146347 48.35481812 -10.02414764 47.34366943 -10.03721619 46.30187988 C-10.03428055 45.21121216 -10.03134491 44.12054443 -10.02832031 42.99682617 C-10.03356216 41.87618774 -10.03880402 40.75554932 -10.04420471 39.60095215 C-10.0506312 37.23047719 -10.04927987 34.85997036 -10.04077148 32.48950195 C-10.03225952 28.85464965 -10.06101968 25.22136694 -10.09277344 21.58666992 C-10.09438539 19.28588914 -10.09380804 16.98510557 -10.09082031 14.68432617 C-10.10767128 13.04832458 -10.10767128 13.04832458 -10.12486267 11.37927246 C-10.11548172 10.36812378 -10.10610077 9.3569751 -10.09643555 8.31518555 C-10.09626938 7.42488647 -10.09610321 6.5345874 -10.09593201 5.61730957 C-9.59472656 3.34057617 -9.59472656 3.34057617 -7.91304016 1.5509491 C-5.07350217 0.0684491 -3.19784679 -0.02160707 0 0 Z " fill="#F8F8F8" transform="translate(571.5947265625,182.659423828125)"/>
<path d="M0 0 C1.68128998 0.00045319 1.68128998 0.00045319 3.39654541 0.00091553 C4.60083191 0.02156067 5.80511841 0.04220581 7.04589844 0.06347656 C8.28321716 0.06913635 9.52053589 0.07479614 10.79534912 0.08062744 C14.0770528 0.09921905 17.35796625 0.13512658 20.6394043 0.17944336 C23.9909741 0.22043991 27.34257788 0.23830655 30.69433594 0.25878906 C37.26499725 0.30290279 43.83498194 0.37195712 50.40527344 0.45410156 C50.40527344 5.40410156 50.40527344 10.35410156 50.40527344 15.45410156 C35.88527344 15.78410156 21.36527344 16.11410156 6.40527344 16.45410156 C6.07527344 18.76410156 5.74527344 21.07410156 5.40527344 23.45410156 C20.25527344 23.45410156 35.10527344 23.45410156 50.40527344 23.45410156 C50.40527344 27.08410156 50.40527344 30.71410156 50.40527344 34.45410156 C35.55527344 34.45410156 20.70527344 34.45410156 5.40527344 34.45410156 C5.73527344 37.09410156 6.06527344 39.73410156 6.40527344 42.45410156 C28.18527344 42.94910156 28.18527344 42.94910156 50.40527344 43.45410156 C50.40527344 48.07410156 50.40527344 52.69410156 50.40527344 57.45410156 C43.15561775 57.52186835 35.90613503 57.57691208 28.65622997 57.60953808 C25.28982466 57.62519667 21.92364721 57.64643777 18.55737305 57.68041992 C14.68760095 57.71671905 10.81815318 57.73380906 6.94824219 57.74707031 C5.13407051 57.7702961 5.13407051 57.7702961 3.2832489 57.79399109 C2.16231339 57.79421768 1.04137787 57.79444427 -0.11352539 57.79467773 C-1.10169754 57.80133957 -2.08986969 57.8080014 -3.10798645 57.81486511 C-5.59472656 57.45410156 -5.59472656 57.45410156 -7.37480164 56.12031555 C-9.55416338 53.14367088 -9.72877646 50.42387874 -9.77172852 46.86254883 C-9.78456375 45.93471085 -9.79739899 45.00687286 -9.81062317 44.05091858 C-9.8180101 43.05088303 -9.82539703 42.05084747 -9.83300781 41.02050781 C-9.84107956 39.99102524 -9.84915131 38.96154266 -9.85746765 37.90086365 C-9.8712986 35.72290732 -9.88202518 33.5449294 -9.88989258 31.36694336 C-9.90714197 28.03295121 -9.95104172 24.69994138 -9.99511719 21.36621094 C-10.00524105 19.25098386 -10.01375811 17.13574835 -10.02050781 15.02050781 C-10.0380159 14.02249649 -10.05552399 13.02448517 -10.07356262 11.99623108 C-10.06917427 10.59974586 -10.06917427 10.59974586 -10.06469727 9.17504883 C-10.07056351 8.35802994 -10.07642975 7.54101105 -10.08247375 6.69923401 C-8.88078938 1.16780167 -5.17956082 -0.04666271 0 0 Z " fill="#FDFDFD" transform="translate(607.5947265625,108.5458984375)"/>
<path d="M0 0 C0.98071472 0.00015106 1.96142944 0.00030212 2.97186279 0.00045776 C4.54861786 0.01594162 4.54861786 0.01594162 6.15722656 0.03173828 C7.78014618 0.03598312 7.78014618 0.03598312 9.43585205 0.04031372 C12.8899646 0.05150469 16.34381744 0.07660758 19.79785156 0.10205078 C22.14029573 0.11208197 24.48274397 0.12120758 26.82519531 0.12939453 C32.56618073 0.15144053 38.30697212 0.18596323 44.04785156 0.22705078 C44.04785156 5.17705078 44.04785156 10.12705078 44.04785156 15.22705078 C29.52785156 15.55705078 15.00785156 15.88705078 0.04785156 16.22705078 C-0.28214844 17.87705078 -0.61214844 19.52705078 -0.95214844 21.22705078 C0.74410966 22.92330887 2.85272794 22.33690321 5.11413574 22.33891296 C6.17960632 22.33574821 6.17960632 22.33574821 7.26660156 22.33251953 C8.77182408 22.3459923 10.27703334 22.36101846 11.78222656 22.37744141 C14.15443345 22.40013845 16.52516184 22.41467102 18.89746094 22.40209961 C35.02910184 22.33935038 35.02910184 22.33935038 41.46191406 27.6105957 C45.33173966 31.55488685 46.49062038 34.59354924 46.54785156 40.10205078 C46.41242451 44.89499091 45.7553168 47.93861088 42.82519531 51.72705078 C36.15574437 57.35577422 30.93226408 57.7837159 22.42675781 57.61767578 C21.3268602 57.61201599 20.22696259 57.6063562 19.09373474 57.6005249 C15.59882117 57.57822821 12.10495254 57.52804227 8.61035156 57.47705078 C6.2334133 57.4569772 3.85645888 57.43872794 1.47949219 57.42236328 C-4.33145409 57.37838506 -10.14162441 57.30940217 -15.95214844 57.22705078 C-15.95214844 52.27705078 -15.95214844 47.32705078 -15.95214844 42.22705078 C6.32285156 41.73205078 6.32285156 41.73205078 29.04785156 41.22705078 C29.04785156 39.57705078 29.04785156 37.92705078 29.04785156 36.22705078 C27.13754185 34.31674107 23.61747822 35.06695403 21.01269531 35.05126953 C19.54848864 35.02804558 18.08429592 35.00392725 16.62011719 34.97900391 C14.31183899 34.9440781 12.00406522 34.91466052 9.69555664 34.90112305 C-6.38385714 34.78836418 -6.38385714 34.78836418 -12.95214844 30.22705078 C-17.25764708 24.81757813 -18.65773516 20.09998808 -17.95214844 13.22705078 C-15.88669483 7.37493222 -12.32557906 4.24626231 -7.07025146 1.10061646 C-4.56440901 0.06713606 -2.70696113 -0.01395341 0 0 Z " fill="#FBFBFB" transform="translate(405.9521484375,108.77294921875)"/>
<path d="M0 0 C5.04955413 2.41456854 7.09816559 6.65678899 9.421875 11.51171875 C9.76424194 12.21213287 10.10660889 12.912547 10.45935059 13.63418579 C14.13560335 21.2016091 17.6686311 28.83722317 21.15820312 36.4921875 C22.24118036 38.86556303 23.33134657 41.23555484 24.421875 43.60546875 C25.11501028 45.12089854 25.8077352 46.63651611 26.5 48.15234375 C26.82488403 48.85741058 27.14976807 49.56247742 27.48449707 50.28890991 C29.71875 55.21192168 29.71875 55.21192168 29.71875 57.44140625 C24.10875 57.44140625 18.49875 57.44140625 12.71875 57.44140625 C11.39875 54.80140625 10.07875 52.16140625 8.71875 49.44140625 C-2.50125 49.11140625 -13.72125 48.78140625 -25.28125 48.44140625 C-26.27125 51.41140625 -27.26125 54.38140625 -28.28125 57.44140625 C-34.22125 57.44140625 -40.16125 57.44140625 -46.28125 57.44140625 C-40.97200071 45.06098866 -35.5785298 32.71716896 -30.03125 20.44140625 C-29.54881836 19.35102051 -29.06638672 18.26063477 -28.56933594 17.13720703 C-22.47371302 3.76891848 -15.70996841 -3.84679021 0 0 Z " fill="#FBFBFB" transform="translate(709.28125,108.55859375)"/>
<path d="M0 0 C18.41212502 1.15075781 34.0172063 7.961914 47.875 20.0546875 C48.48988281 20.57417969 49.10476563 21.09367187 49.73828125 21.62890625 C64.28263522 34.90271895 70.33424248 54.01392427 72.16015625 73.0234375 C72.83985098 92.64592877 65.2386154 111.69687423 52.4375 126.3046875 C50.93244201 127.90302379 49.41251754 129.48755053 47.875 131.0546875 C47.27300781 131.68117187 46.67101562 132.30765625 46.05078125 132.953125 C30.5317411 147.83255178 9.49612024 151.70321893 -11.17578125 151.390625 C-30.82141403 150.63225155 -46.63418802 140.68665895 -60.125 127.0546875 C-60.79144531 126.41015625 -61.45789063 125.765625 -62.14453125 125.1015625 C-73.77764854 113.02202761 -80.26407864 94.63286172 -80.125 78.0546875 C-79.63 77.0646875 -79.63 77.0646875 -79.125 76.0546875 C-77.45888095 76.0119665 -75.79117115 76.01404918 -74.125 76.0546875 C-72.47489151 77.70479599 -72.68058969 79.84665609 -72.375 82.1171875 C-69.2338152 101.39993506 -61.51738464 118.98577332 -45.26489258 130.74853516 C-42.59839647 132.59860086 -39.87824175 134.33567631 -37.125 136.0546875 C-36.44953125 136.48652344 -35.7740625 136.91835937 -35.078125 137.36328125 C-21.44679463 145.11383856 -2.89563271 146.16256079 12.14453125 142.86328125 C30.43446381 137.44694929 45.2585384 126.98215183 55.015625 110.53125 C57.86102793 105.21106384 60.01434127 99.78732433 61.875 94.0546875 C62.12121094 93.31089844 62.36742187 92.56710938 62.62109375 91.80078125 C67.11947212 75.45150263 63.06553751 56.08797952 55.484375 41.3515625 C45.62646676 24.60268928 30.51968814 14.19804975 11.875 9.0546875 C7.24516239 8.11596058 2.57300633 7.53305593 -2.125 7.0546875 C-2.50633299 5.0632819 -2.83825582 3.06189673 -3.125 1.0546875 C-2.125 0.0546875 -2.125 0.0546875 0 0 Z " fill="#F38AC8" transform="translate(277.125,98.9453125)"/>
<path d="M0 0 C4.95 0 9.9 0 15 0 C15 6.93 15 13.86 15 21 C26.22 21 37.44 21 49 21 C49 14.07 49 7.14 49 0 C54.28 0 59.56 0 65 0 C65 18.81 65 37.62 65 57 C60.05 57 55.1 57 50 57 C50 49.74 50 42.48 50 35 C38.45 35 26.9 35 15 35 C15 42.26 15 49.52 15 57 C10.05 57 5.1 57 0 57 C0 38.19 0 19.38 0 0 Z " fill="#FBFBFB" transform="translate(388,183)"/>
<path d="M0 0 C5.94 0 11.88 0 18 0 C22.42749023 10.33081055 26.85498047 20.66162109 31.2824707 30.99243164 C31.57376862 31.66138458 31.86506653 32.33033752 32.16519165 33.01956177 C32.72463177 34.34673657 33.2523918 35.68768559 33.74862671 37.0397644 C34.5204019 39.18376584 34.5204019 39.18376584 36 42 C38.06890419 43.04289755 38.06890419 43.04289755 40 43 C40.52207031 41.2984375 40.52207031 41.2984375 41.0546875 39.5625 C43.36139318 32.64509354 46.29015727 25.97775338 49.15283203 19.27685547 C50.13377701 16.9794439 51.10825389 14.67936375 52.08203125 12.37890625 C52.70274829 10.9191106 53.32382858 9.45946933 53.9453125 8 C54.23697296 7.31156006 54.52863342 6.62312012 54.82913208 5.91381836 C56.8845277 1.1154723 56.8845277 1.1154723 58 0 C60.86267567 -0.07325168 63.700719 -0.09238205 66.5625 -0.0625 C67.36880859 -0.05798828 68.17511719 -0.05347656 69.00585938 -0.04882812 C71.00393756 -0.03700518 73.00197783 -0.01906914 75 0 C74.34281925 4.57320487 72.57542027 8.49913357 70.6484375 12.65234375 C70.31131744 13.38892715 69.97419739 14.12551056 69.62686157 14.88441467 C68.91146802 16.44468658 68.19350207 18.00378125 67.47314453 19.56176758 C66.39420283 21.89595648 65.32334248 24.23370898 64.25390625 26.57226562 C60.96932335 33.73366622 57.63469138 40.87206662 54.171875 47.94921875 C53.63401367 49.05225342 53.09615234 50.15528809 52.54199219 51.29174805 C50.82464304 54.30798523 49.37915531 56.25423749 46.15234375 57.5859375 C39.6922168 58.82872054 33.44610423 59.15868095 27.4375 56.3125 C22.67812267 51.79719331 19.91384774 47.15301907 17.28515625 41.2421875 C16.94753769 40.49848907 16.60991913 39.75479065 16.2620697 38.98855591 C15.18880806 36.62034926 14.12549176 34.24783141 13.0625 31.875 C12.35287308 30.30438934 11.64259229 28.73407394 10.93164062 27.1640625 C9.56487076 24.14408612 8.20430489 21.12143367 6.84814453 18.09667969 C4.88708178 13.73059714 2.86179601 9.39511376 0.81030273 5.07080078 C0 3 0 3 0 0 Z " fill="#FAFAFA" transform="translate(483,183)"/>
<path d="M0 0 C14.54838527 0.20694716 29.06534182 7.8253889 39.40234375 17.7421875 C52.58088505 32.17060709 58.39309604 49.09061876 58.05859375 68.55078125 C56.6835369 85.31255022 47.81728475 100.08205885 35.75 111.3125 C21.79710461 123.10523149 5.90597194 127.44785661 -12.03320312 126.5078125 C-28.10808125 125.09152368 -40.26379329 117.74536851 -52.25 107.3125 C-51.92 105.6625 -51.59 104.0125 -51.25 102.3125 C-46.76087382 101.93648772 -46.76087382 101.93648772 -44.50390625 103.59765625 C-43.94574219 104.18417969 -43.38757813 104.77070313 -42.8125 105.375 C-31.19542965 116.22053816 -16.77227233 119.11389095 -1.44140625 118.75390625 C12.4701368 117.93558019 26.01595311 110.53628208 35.5625 100.625 C44.83223792 89.69699053 49.34586981 76.64963162 49.1875 62.4375 C49.17505249 60.98960083 49.17505249 60.98960083 49.16235352 59.51245117 C48.84689657 46.18130791 44.17705455 35.5635359 35.3125 25.5625 C34.0440625 24.44875 34.0440625 24.44875 32.75 23.3125 C31.94369141 22.50232422 31.94369141 22.50232422 31.12109375 21.67578125 C21.32883459 12.25149843 8.64234597 9.1259773 -4.25 6.3125 C-4.63218767 4.65635343 -4.96395102 2.98792976 -5.25 1.3125 C-3.68373994 -0.25376006 -2.17924451 0.0667833 0 0 Z " fill="#F188C6" transform="translate(279.25,111.6875)"/>
<path d="M0 0 C21.45 0 42.9 0 65 0 C65 4.95 65 9.9 65 15 C56.75 15 48.5 15 40 15 C40 28.86 40 42.72 40 57 C35.05 57 30.1 57 25 57 C25 43.14 25 29.28 25 15 C16.75 15 8.5 15 0 15 C0 10.05 0 5.1 0 0 Z " fill="#FEFEFE" transform="translate(456,109)"/>
<path d="M0 0 C11.98552838 0.19331497 22.89262005 7.7754808 31.4375 15.5625 C41.43445614 26.10302586 45.26420105 38.39988792 45.17211914 52.55126953 C44.81387444 63.82481906 41.10136218 73.1350731 34.75 82.375 C34.151875 83.261875 33.55375 84.14875 32.9375 85.0625 C24.66396727 93.80880603 13.31261081 100.97655788 1.03125 101.48828125 C-1.40014369 101.49852589 -3.82044321 101.4646148 -6.25 101.375 C-6.63218767 99.71885343 -6.96395102 98.05042976 -7.25 96.375 C-5.35316967 94.47816967 -1.97844933 94.61227876 0.5625 94.1875 C12.36842355 91.96033913 22.37130662 87.15212144 29.75 77.375 C37.0350325 65.45125115 39.7610975 53.81816894 37.1015625 40.0078125 C33.96768732 29.6954882 27.78810547 20.41066839 18.75 14.375 C12.28924243 11.01504862 5.79574756 8.87990392 -1.38671875 7.734375 C-3.25 7.375 -3.25 7.375 -4.25 6.375 C-4.375 3.875 -4.375 3.875 -4.25 1.375 C-3.25 0.375 -3.25 0.375 0 0 Z " fill="#F389C7" transform="translate(278.25,123.625)"/>
<path d="M0 0 C5.28 0 10.56 0 16 0 C16 19.14 16 38.28 16 58 C10.72 58 5.44 58 0 58 C0 38.86 0 19.72 0 0 Z " fill="#F2F1F1" transform="translate(461,183)"/>
<path d="M0 0 C2.05900648 -0.009694 4.11700982 -0.04069845 6.17578125 -0.07226562 C7.47 -0.07742187 8.76421875 -0.08257812 10.09765625 -0.08789062 C11.88695557 -0.10190918 11.88695557 -0.10190918 13.71240234 -0.11621094 C16.69921875 0.24023438 16.69921875 0.24023438 18.62353516 1.60058594 C19.69921875 3.24023438 19.69921875 3.24023438 19.51171875 5.80273438 C18.69921875 8.24023438 18.69921875 8.24023438 16.69921875 10.24023438 C13.71826172 10.46728516 13.71826172 10.46728516 9.94140625 10.43554688 C9.2783548 10.43271698 8.61530334 10.42988708 7.93215942 10.42697144 C5.81266292 10.41576873 3.69358771 10.39066488 1.57421875 10.36523438 C0.13802693 10.35520465 -1.2981715 10.34607879 -2.734375 10.33789062 C-6.25664753 10.31582938 -9.77867328 10.28129931 -13.30078125 10.24023438 C-13.32767341 8.76116546 -13.34712746 7.28195955 -13.36328125 5.80273438 C-13.37488281 4.97902344 -13.38648438 4.1553125 -13.3984375 3.30664062 C-13.13750542 -2.21468224 -4.12766189 0.01179332 0 0 Z " fill="#2A2829" transform="translate(555.30078125,122.759765625)"/>
<path d="M0 0 C1.65 0 3.3 0 5 0 C6.33912585 3.12254943 7.67030658 6.24842358 9 9.375 C9.3815625 10.26445312 9.763125 11.15390625 10.15625 12.0703125 C10.5171875 12.92109375 10.878125 13.771875 11.25 14.6484375 C11.58515625 15.43395996 11.9203125 16.21948242 12.265625 17.02880859 C13 19 13 19 13 21 C6.07 21 -0.86 21 -8 21 C-7.29646184 17.48230922 -6.77035071 15.14096614 -5.37109375 12.01171875 C-5.05849609 11.30595703 -4.74589844 10.60019531 -4.42382812 9.87304688 C-4.09833984 9.15181641 -3.77285156 8.43058594 -3.4375 7.6875 C-2.9434668 6.57665039 -2.9434668 6.57665039 -2.43945312 5.44335938 C-1.63082877 3.62688438 -0.81602884 1.81316069 0 0 Z " fill="#1E1C1D" transform="translate(699,123)"/>
</svg>
